<svg width="27" height="21" viewBox="0 0 27 21" fill="none" xmlns="http://www.w3.org/2000/svg">
<path d="M1 1.11111C1 0.816426 1.1317 0.533811 1.36612 0.325437C1.60054 0.117063 1.91848 0 2.25 0H24.75C25.0815 0 25.3995 0.117063 25.6339 0.325437C25.8683 0.533811 26 0.816426 26 1.11111C26 1.4058 25.8683 1.68841 25.6339 1.89679C25.3995 2.10516 25.0815 2.22222 24.75 2.22222H2.25C1.91848 2.22222 1.60054 2.10516 1.36612 1.89679C1.1317 1.68841 1 1.4058 1 1.11111ZM2.25 11.1111H24.75C25.0815 11.1111 25.3995 10.994 25.6339 10.7857C25.8683 10.5773 26 10.2947 26 10C26 9.70532 25.8683 9.4227 25.6339 9.21433C25.3995 9.00595 25.0815 8.88889 24.75 8.88889H2.25C1.91848 8.88889 1.60054 9.00595 1.36612 9.21433C1.1317 9.4227 1 9.70532 1 10C1 10.2947 1.1317 10.5773 1.36612 10.7857C1.60054 10.994 1.91848 11.1111 2.25 11.1111ZM2.25 20H24.75C25.0815 20 25.3995 19.8829 25.6339 19.6746C25.8683 19.4662 26 19.1836 26 18.8889C26 18.5942 25.8683 18.3116 25.6339 18.1032C25.3995 17.8948 25.0815 17.7778 24.75 17.7778H2.25C1.91848 17.7778 1.60054 17.8948 1.36612 18.1032C1.1317 18.3116 1 18.5942 1 18.8889C1 19.1836 1.1317 19.4662 1.36612 19.6746C1.60054 19.8829 1.91848 20 2.25 20Z" fill="black" stroke="black"/>
</svg>
