<svg width="55" height="55" viewBox="0 0 55 55" fill="none" xmlns="http://www.w3.org/2000/svg">
<path d="M4.58333 9.16667C4.58333 8.55888 4.82477 7.97598 5.25454 7.54621C5.68431 7.11644 6.26721 6.875 6.87499 6.875H48.125C48.7328 6.875 49.3157 7.11644 49.7455 7.54621C50.1752 7.97598 50.4167 8.55888 50.4167 9.16667C50.4167 9.77445 50.1752 10.3573 49.7455 10.7871C49.3157 11.2169 48.7328 11.4583 48.125 11.4583H6.87499C6.26721 11.4583 5.68431 11.2169 5.25454 10.7871C4.82477 10.3573 4.58333 9.77445 4.58333 9.16667ZM6.87499 29.7917H48.125C48.7328 29.7917 49.3157 29.5502 49.7455 29.1205C50.1752 28.6907 50.4167 28.1078 50.4167 27.5C50.4167 26.8922 50.1752 26.3093 49.7455 25.8795C49.3157 25.4498 48.7328 25.2083 48.125 25.2083H6.87499C6.26721 25.2083 5.68431 25.4498 5.25454 25.8795C4.82477 26.3093 4.58333 26.8922 4.58333 27.5C4.58333 28.1078 4.82477 28.6907 5.25454 29.1205C5.68431 29.5502 6.26721 29.7917 6.87499 29.7917ZM6.87499 48.125H48.125C48.7328 48.125 49.3157 47.8836 49.7455 47.4538C50.1752 47.024 50.4167 46.4411 50.4167 45.8333C50.4167 45.2255 50.1752 44.6427 49.7455 44.2129C49.3157 43.7831 48.7328 43.5417 48.125 43.5417H6.87499C6.26721 43.5417 5.68431 43.7831 5.25454 44.2129C4.82477 44.6427 4.58333 45.2255 4.58333 45.8333C4.58333 46.4411 4.82477 47.024 5.25454 47.4538C5.68431 47.8836 6.26721 48.125 6.87499 48.125Z" fill="black" stroke="black"/>
</svg>
