<!DOCTYPE svg PUBLIC "-//W3C//DTD SVG 1.1//EN" "http://www.w3.org/Graphics/SVG/1.1/DTD/svg11.dtd">
<!-- Uploaded to: SVG Repo, www.svgrepo.com, Transformed by: SVG Repo Mixer Tools -->
<svg fill="#ffffff" version="1.1" id="Capa_1" xmlns="http://www.w3.org/2000/svg" xmlns:xlink="http://www.w3.org/1999/xlink" width="70px" height="70px" viewBox="-241.02 -241.02 964.07 964.07" xml:space="preserve" stroke="#ffffff" stroke-width="3.8562640000000004">
<g id="SVGRepo_bgCarrier" stroke-width="0" transform="translate(0,0), scale(1)">
<rect x="-241.02" y="-241.02" width="964.07" height="964.07" rx="482.035" fill="#65BC7B" strokewidth="0"/>
</g>
<g id="SVGRepo_tracerCarrier" stroke-linecap="round" stroke-linejoin="round" stroke="#ffffff" stroke-width="10.604726000000001"> <g> <path d="M217.764,80.987H12.126C5.442,80.987,0,86.429,0,93.113v124.718c0,6.687,5.442,12.127,12.126,12.127h205.632 c6.679,0,12.126-5.44,12.126-12.127V93.113C229.89,86.429,224.442,80.987,217.764,80.987z M218.101,217.831 c0,0.186-0.154,0.337-0.343,0.337H12.126c-0.184,0-0.342-0.151-0.342-0.337V93.113c0-0.186,0.153-0.336,0.342-0.336h205.632 c0.184,0,0.343,0.151,0.343,0.336V217.831z M469.913,80.987H264.274c-6.687,0-12.125,5.442-12.125,12.126v124.718 c0,6.687,5.438,12.127,12.125,12.127h205.633c6.682,0,12.126-5.44,12.126-12.127V93.113 C482.038,86.429,476.589,80.987,469.913,80.987z M470.252,217.831c0,0.186-0.153,0.337-0.345,0.337H264.274 c-0.184,0-0.338-0.151-0.338-0.337V93.113c0-0.186,0.154-0.336,0.338-0.336h205.633c0.183,0,0.345,0.151,0.345,0.336V217.831z M217.764,252.074H12.126C5.442,252.074,0,257.514,0,264.2v124.718c0,6.688,5.442,12.128,12.126,12.128h205.632 c6.679,0,12.126-5.439,12.126-12.128V264.2C229.89,257.514,224.442,252.074,217.764,252.074z M218.101,388.918 c0,0.186-0.154,0.339-0.343,0.339H12.126c-0.184,0-0.342-0.153-0.342-0.339V264.2c0-0.186,0.153-0.339,0.342-0.339h205.632 c0.184,0,0.343,0.153,0.343,0.339V388.918z M469.913,252.074H264.274c-6.687,0-12.125,5.439-12.125,12.126v124.718 c0,6.688,5.438,12.128,12.125,12.128h205.633c6.682,0,12.126-5.439,12.126-12.128V264.2 C482.038,257.514,476.589,252.074,469.913,252.074z M470.252,388.918c0,0.186-0.153,0.339-0.345,0.339H264.274 c-0.184,0-0.338-0.153-0.338-0.339V264.2c0-0.186,0.154-0.339,0.338-0.339h205.633c0.183,0,0.345,0.153,0.345,0.339V388.918z"/> </g> </g>
<g id="SVGRepo_iconCarrier"> <g> <path d="M217.764,80.987H12.126C5.442,80.987,0,86.429,0,93.113v124.718c0,6.687,5.442,12.127,12.126,12.127h205.632 c6.679,0,12.126-5.44,12.126-12.127V93.113C229.89,86.429,224.442,80.987,217.764,80.987z M218.101,217.831 c0,0.186-0.154,0.337-0.343,0.337H12.126c-0.184,0-0.342-0.151-0.342-0.337V93.113c0-0.186,0.153-0.336,0.342-0.336h205.632 c0.184,0,0.343,0.151,0.343,0.336V217.831z M469.913,80.987H264.274c-6.687,0-12.125,5.442-12.125,12.126v124.718 c0,6.687,5.438,12.127,12.125,12.127h205.633c6.682,0,12.126-5.44,12.126-12.127V93.113 C482.038,86.429,476.589,80.987,469.913,80.987z M470.252,217.831c0,0.186-0.153,0.337-0.345,0.337H264.274 c-0.184,0-0.338-0.151-0.338-0.337V93.113c0-0.186,0.154-0.336,0.338-0.336h205.633c0.183,0,0.345,0.151,0.345,0.336V217.831z M217.764,252.074H12.126C5.442,252.074,0,257.514,0,264.2v124.718c0,6.688,5.442,12.128,12.126,12.128h205.632 c6.679,0,12.126-5.439,12.126-12.128V264.2C229.89,257.514,224.442,252.074,217.764,252.074z M218.101,388.918 c0,0.186-0.154,0.339-0.343,0.339H12.126c-0.184,0-0.342-0.153-0.342-0.339V264.2c0-0.186,0.153-0.339,0.342-0.339h205.632 c0.184,0,0.343,0.153,0.343,0.339V388.918z M469.913,252.074H264.274c-6.687,0-12.125,5.439-12.125,12.126v124.718 c0,6.688,5.438,12.128,12.125,12.128h205.633c6.682,0,12.126-5.439,12.126-12.128V264.2 C482.038,257.514,476.589,252.074,469.913,252.074z M470.252,388.918c0,0.186-0.153,0.339-0.345,0.339H264.274 c-0.184,0-0.338-0.153-0.338-0.339V264.2c0-0.186,0.154-0.339,0.338-0.339h205.633c0.183,0,0.345,0.153,0.345,0.339V388.918z"/> </g> </g>
</svg>